<svg xmlns="http://www.w3.org/2000/svg" viewBox="0 0 100 36">
<path d="M10.9 32a12 12 0 0 1-3.16-.46 10 10 0 0 1-2.72-1.26 10 10 0 0 1-2.18-1.94L5 26.2a8 8 0 0 0 2.64 2.08 8 8 0 0 0 3.34.7q1.92 0 2.98-.7a2.2 2.2 0 0 0 1.06-1.98q0-1.2-.8-1.88-.8-.7-2.04-1.12-1.26-.4-2.66-.8a16 16 0 0 1-2.64-1.04 6 6 0 0 1-2.06-1.74q-.8-1.1-.8-2.92 0-1.76.86-3.04.86-1.3 2.44-2 1.56-.72 3.74-.72 2.32 0 4.16.8 1.84.84 3 2.46l-2.14 2.1a6 6 0 0 0-2.2-1.76 7 7 0 0 0-2.94-.6q-1.8 0-2.76.68t-.96 1.8.8 1.72 2.06 1 2.64.8 2.66 1.08 2.04 1.8q.8 1.16.8 3.04 0 2.78-1.98 4.4t-5.34 1.6"/>
<!-- Shackle -->
<path fill="#00d619" d="m24.88 18.12-3.32 3.84v-8.6q0-2.96 1.36-5.32a10 10 0 0 1 3.72-3.76Q29 2.9 31.92 2.9q2.76 0 4.88 1.26a9 9 0 0 1 3.36 3.48q1.2 2.2 1.2 5.08v8.42l-3.2-2.78v-5.5q0-2.12-.74-3.66a6 6 0 0 0-2.18-2.38q-1.4-.84-3.4-.84-2.1 0-3.66.9-1.58.92-2.44 2.54t-.88 3.84z"/>
<!-- e -->
<path fill="#00580a" d="M23.08 19.94h17.76v2.76H23.08zm18.34 5.18a10.6 10.6 0 0 1-4.6 5.46q-2.4 1.4-5.4 1.4-2.96 0-5.36-1.4a10 10 0 0 1-3.8-3.8q-1.4-2.4-1.4-5.34 0-2.92 1.4-5.28a10 10 0 0 1 3.8-3.74q2.4-1.4 5.36-1.4 3 0 5.4 1.4a10 10 0 0 1 3.8 3.72q1.4 2.38 1.4 5.3 0 .64-.08 1.26h-3.48a8 8 0 0 0 .1-1.28q0-2.08-.94-3.7a7 7 0 0 0-2.52-2.56q-1.6-.94-3.66-.94-2.04 0-3.66.94a7 7 0 0 0-2.54 2.56q-.92 1.62-.92 3.72 0 2.12.92 3.8.92 1.64 2.54 2.6 1.6.94 3.66.94t3.66-.94a7 7 0 0 0 2.54-2.62 8 8 0 0 0 .48-1.1c1.38.44 1.94.6 3.3 1"/>
<path d="M86.8 31.76V3h3.34v28.8zm-5-17.3v-3.02h13.4v3zm-14.92 17.3V11.44h3.34v20.32zm3.34-11.8-1.34-.6q0-3.84 1.84-6.1 1.82-2.24 5.12-2.24 1.5 0 2.74.52 1.24.54 2.32 1.74l-2.2 2.3a4 4 0 0 0-1.52-1.1 6 6 0 0 0-1.92-.32q-2.2 0-3.62 1.46t-1.42 4.32M55.14 32q-2.96 0-5.34-1.4a10 10 0 0 1-3.76-3.8q-1.4-2.4-1.4-5.34t1.4-5.32a10 10 0 0 1 3.76-3.74q2.4-1.4 5.34-1.4 2.3 0 4.26.9a10 10 0 0 1 3.4 2.44l-2.2 2.24a6 6 0 0 0-2.4-1.74 8 8 0 0 0-3.06-.6q-2.04 0-3.64.94a7 7 0 0 0-2.5 2.56q-.92 1.62-.92 3.74t.92 3.78 2.5 2.6 3.64.94q1.66 0 3.1-.6a6 6 0 0 0 2.4-1.74l2.2 2.2a10 10 0 0 1-3.4 2.48 10 10 0 0 1-4.3.9"/>
</svg> 