<svg xmlns="http://www.w3.org/2000/svg" viewBox="0 0 50 18">
<!-- Outline -->
<path fill="#fff" d="M2.56 11.84h.04c.6-.06-.83-.74-1.2-1.26a3.7 3.7 0 0 1-.63-2.2 3.9 3.9 0 0 1 2.37-3.65q1-.46 2.4-.47 1.44 0 2.58.52.84.37 1.47 1a6 6 0 0 1 .79-2.39 6.3 6.3 0 0 1 2.31-2.33A6.3 6.3 0 0 1 15.96.2q1.74 0 3.08.8a5.7 5.7 0 0 1 2.13 2.22q.76 1.37.76 3.14v1.09a6.3 6.3 0 0 1 2.34-2.33 6.5 6.5 0 0 1 3.3-.86q1.4 0 2.63.53a6 6 0 0 1 1.98 1.38v-.45c0-.7.56-1.25 1.25-1.25h1.67q.4 0 .72.23.9-.45 2.09-.44 1.02 0 1.87.37l.3.14q.33-.3.8-.3h1.27V1.49c0-.69.56-1.25 1.25-1.25h1.67c.7 0 1.25.56 1.25 1.25v2.98h1.26c.69 0 1.25.56 1.25 1.25v1.5a1.25 1.25 0 0 1-1.25 1.26h-1.26v7.4c0 .7-.56 1.25-1.25 1.25H43.4a1.25 1.25 0 0 1-1.25-1.25v-7.4H40.9q-.22 0-.42-.07l-.23.24a1.25 1.25 0 0 1-1.82-.02 1 1 0 0 0-.3-.22 1 1 0 0 0-.5-.08q-.56-.01-.92.35c-.28.28-.35.73-.35 1.3v5.9c0 .7-.56 1.25-1.25 1.25h-1.67a1.25 1.25 0 0 1-1.25-1.25v-.53a6 6 0 0 1-1.97 1.36 7 7 0 0 1-2.64.54q-1.83 0-3.3-.87a6.3 6.3 0 0 1-2.6-2.87 6.5 6.5 0 0 1-2.64 2.86q-1.48.87-3.31.88-1.84 0-3.32-.88a6.5 6.5 0 0 1-2.21-2.11 3.8 3.8 0 0 1-1.28 1.9q-1.27 1.07-3.46 1.09a7 7 0 0 1-1.93-.28 6 6 0 0 1-1.7-.78 6 6 0 0 1-1.36-1.22 1.25 1.25 0 0 1 .08-1.68l1.07-1.08c.25-.25.6-.36.95-.37m29.62 1.48V8.15l-1 1a1.25 1.25 0 0 1-1.82-.05 2 2 0 0 0-.76-.54 3 3 0 0 0-1.03-.2q-.66 0-1.18.3t-.8.81q-.3.55-.3 1.26 0 .72.3 1.28.3.53.8.83.52.3 1.18.3.57 0 1.05-.2.44-.19.76-.55a1.25 1.25 0 0 1 1.83-.05z"/>
<!-- s -->
<path d="M5.45 16a6 6 0 0 1-1.58-.23 5 5 0 0 1-1.36-.63 5 5 0 0 1-1.09-.97L2.5 13.1a4 4 0 0 0 1.32 1.04 4 4 0 0 0 1.67.35q.96 0 1.49-.35a1.1 1.1 0 0 0 .53-.99q0-.6-.4-.94-.4-.35-1.02-.56-.63-.2-1.33-.4a8 8 0 0 1-1.32-.52 3 3 0 0 1-1.03-.87q-.4-.55-.4-1.46 0-.88.43-1.52.43-.65 1.22-1 .78-.36 1.87-.36 1.16 0 2.08.4.92.42 1.5 1.23L8.04 8.2a3 3 0 0 0-1.1-.88 3.4 3.4 0 0 0-1.47-.3q-.9 0-1.38.34t-.48.9.4.86 1.03.5 1.32.4 1.33.54 1.02.9q.4.58.4 1.52 0 1.39-.99 2.2t-2.67.8"/>
<!-- Shackle -->
<path fill="#00d619" d="m12.44 9.06-1.66 1.92v-4.3q0-1.48.68-2.66a5 5 0 0 1 1.86-1.88q1.18-.69 2.64-.69 1.38 0 2.44.63a4.5 4.5 0 0 1 1.68 1.74q.6 1.1.6 2.54v4.21l-1.6-1.39V6.43q0-1.06-.37-1.83a3 3 0 0 0-1.09-1.19q-.7-.42-1.7-.42-1.05 0-1.83.45-.79.46-1.22 1.27t-.44 1.92z"/>
<!-- e -->
<path fill="#00580a" d="M11.54 9.97h8.88v1.38h-8.88zm9.17 2.59a5.3 5.3 0 0 1-2.3 2.73q-1.2.7-2.7.7-1.48 0-2.68-.7a5 5 0 0 1-1.9-1.9q-.7-1.2-.7-2.67 0-1.46.7-2.64a5 5 0 0 1 1.9-1.87q1.2-.7 2.68-.7 1.5 0 2.7.7a5 5 0 0 1 1.9 1.86q.7 1.19.7 2.65 0 .32-.04.63h-1.74a4 4 0 0 0 .05-.64q0-1.04-.47-1.85a3.5 3.5 0 0 0-1.26-1.28q-.8-.47-1.83-.47-1.02 0-1.83.47a3.4 3.4 0 0 0-1.27 1.28q-.46.81-.46 1.86 0 1.06.46 1.9.46.82 1.27 1.3.8.47 1.83.47t1.83-.47a3.4 3.4 0 0 0 1.27-1.31 4 4 0 0 0 .24-.55c.69.22.97.3 1.65.5"/>
<!-- crt -->
<path d="M43.4 15.88V1.5h1.67v14.4zM40.9 7.23V5.72h6.69v1.5zm-7.46 8.65V5.72h1.67v10.16zm1.67-5.9-.67-.3q0-1.92.92-3.05.91-1.12 2.56-1.12.75 0 1.37.26.62.27 1.16.87l-1.1 1.14a2 2 0 0 0-.76-.54 3 3 0 0 0-.96-.16q-1.1 0-1.81.73t-.71 2.16M27.57 16q-1.48 0-2.67-.7a5 5 0 0 1-1.88-1.9q-.7-1.19-.7-2.67t.7-2.66A5 5 0 0 1 24.9 6.2q1.19-.7 2.67-.7 1.14 0 2.13.44a5 5 0 0 1 1.7 1.22l-1.1 1.12a3 3 0 0 0-1.2-.87 4 4 0 0 0-1.53-.3q-1.02 0-1.82.47a3.4 3.4 0 0 0-1.25 1.28q-.46.81-.46 1.87t.46 1.89 1.25 1.3 1.82.47q.83 0 1.54-.3a3 3 0 0 0 1.2-.87l1.1 1.1a5 5 0 0 1-1.7 1.24 5 5 0 0 1-2.14.44"/>
</svg>